<svg xmlns="http://www.w3.org/2000/svg" viewBox="0 0 1200 750" role="img" aria-labelledby="title">
  <title id="title">Finora banking application preview</title>
  <rect width="1200" height="750" fill="#f4f1ff"/>
  <circle cx="1090" cy="40" r="260" fill="#d8ceff"/>
  <circle cx="70" cy="720" r="250" fill="#d9f5ec"/>
  <rect x="115" y="70" width="970" height="610" rx="32" fill="#fff" stroke="#ded8ed" stroke-width="3"/>
  <rect x="155" y="110" width="145" height="24" rx="12" fill="#241b40"/>
  <rect x="880" y="105" width="160" height="36" rx="18" fill="#f0edfa"/>
  <rect x="155" y="190" width="420" height="205" rx="24" fill="#6d4aff"/>
  <rect x="190" y="230" width="115" height="14" rx="7" fill="#d8ceff"/>
  <rect x="190" y="270" width="225" height="42" rx="10" fill="#fff"/>
  <circle cx="505" cy="335" r="22" fill="#54d4b5"/>
  <rect x="615" y="190" width="425" height="205" rx="24" fill="#f4f2fa"/>
  <path d="M665 340c55-85 92-15 145-70s95 55 180-35" fill="none" stroke="#6d4aff" stroke-width="11" stroke-linecap="round"/>
  <rect x="155" y="440" width="885" height="170" rx="24" fill="#f8f7fb"/>
  <rect x="190" y="478" width="135" height="17" rx="8" fill="#777184"/>
  <rect x="190" y="530" width="400" height="13" rx="6" fill="#d3cfdb"/>
  <rect x="190" y="562" width="315" height="13" rx="6" fill="#e0dce5"/>
  <rect x="865" y="515" width="125" height="42" rx="21" fill="#241b40"/>
</svg>
