<svg xmlns="http://www.w3.org/2000/svg" viewBox="0 0 1200 750" role="img" aria-labelledby="title">
  <title id="title">Jelajah Nusantara travel editorial preview</title>
  <defs><linearGradient id="sky" x1="0" y1="0" x2="0" y2="1"><stop stop-color="#8bd5ee"/><stop offset="1" stop-color="#fbe7bb"/></linearGradient></defs>
  <rect width="1200" height="750" fill="url(#sky)"/>
  <circle cx="930" cy="145" r="78" fill="#fff2b5"/>
  <path d="M0 480 260 235l190 190 160-145 250 215 150-120 190 150v225H0Z" fill="#2f7165"/>
  <path d="M0 565 240 370l165 130 170-105 225 150 190-100 210 135v170H0Z" fill="#174d47"/>
  <rect x="75" y="70" width="1050" height="610" rx="26" fill="none" stroke="#fff" stroke-width="3" opacity=".8"/>
  <rect x="115" y="108" width="185" height="22" rx="11" fill="#173f3a"/>
  <rect x="835" y="105" width="72" height="28" rx="14" fill="#fff" opacity=".75"/>
  <rect x="925" y="105" width="72" height="28" rx="14" fill="#fff" opacity=".75"/>
  <text x="115" y="260" font-family="Arial,sans-serif" font-weight="700" font-size="72" fill="#fff">Jelajah</text>
  <text x="115" y="332" font-family="Arial,sans-serif" font-weight="700" font-size="72" fill="#fff">Nusantara</text>
  <rect x="118" y="365" width="360" height="14" rx="7" fill="#fff" opacity=".8"/>
  <rect x="118" y="395" width="280" height="14" rx="7" fill="#fff" opacity=".65"/>
</svg>
