<svg xmlns="http://www.w3.org/2000/svg" viewBox="0 0 1200 750" role="img" aria-labelledby="title">
  <title id="title">Nusa Commerce storefront preview</title>
  <defs><linearGradient id="g" x1="0" y1="0" x2="1" y2="1"><stop stop-color="#24174f"/><stop offset="1" stop-color="#7c5cff"/></linearGradient></defs>
  <rect width="1200" height="750" fill="url(#g)"/>
  <circle cx="1030" cy="90" r="220" fill="#a991ff" opacity=".2"/>
  <rect x="105" y="90" width="990" height="570" rx="28" fill="#fff" opacity=".96"/>
  <rect x="150" y="135" width="170" height="20" rx="10" fill="#21183d"/>
  <rect x="860" y="132" width="78" height="26" rx="13" fill="#eeeaff"/>
  <rect x="955" y="128" width="92" height="34" rx="17" fill="#6d4aff"/>
  <rect x="150" y="215" width="480" height="370" rx="24" fill="#f0ecff"/>
  <circle cx="390" cy="375" r="112" fill="#8f74ff"/>
  <path d="M335 390c45-100 92-100 132 0" fill="none" stroke="#fff" stroke-width="34" stroke-linecap="round"/>
  <rect x="690" y="235" width="280" height="28" rx="14" fill="#21183d"/>
  <rect x="690" y="285" width="350" height="14" rx="7" fill="#bbb5c9"/>
  <rect x="690" y="315" width="300" height="14" rx="7" fill="#d4cfdd"/>
  <rect x="690" y="385" width="110" height="42" rx="21" fill="#21183d"/>
  <rect x="820" y="385" width="110" height="42" rx="21" fill="#eeeaff"/>
</svg>
