<svg xmlns="http://www.w3.org/2000/svg" viewBox="0 0 1200 750" role="img" aria-labelledby="title">
  <title id="title">Pulse Analytics dashboard preview</title>
  <rect width="1200" height="750" fill="#101116"/>
  <rect x="75" y="65" width="1050" height="620" rx="30" fill="#181a21" stroke="#30333e" stroke-width="3"/>
  <rect x="115" y="105" width="190" height="24" rx="12" fill="#f2f3f7"/>
  <rect x="900" y="100" width="175" height="35" rx="17" fill="#282b35"/>
  <rect x="115" y="185" width="290" height="150" rx="20" fill="#22252e"/>
  <rect x="435" y="185" width="290" height="150" rx="20" fill="#22252e"/>
  <rect x="755" y="185" width="320" height="150" rx="20" fill="#22252e"/>
  <rect x="145" y="225" width="100" height="16" rx="8" fill="#858b9d"/>
  <rect x="145" y="265" width="145" height="34" rx="10" fill="#67e8c4"/>
  <rect x="465" y="225" width="105" height="16" rx="8" fill="#858b9d"/>
  <rect x="465" y="265" width="125" height="34" rx="10" fill="#a991ff"/>
  <rect x="115" y="370" width="960" height="260" rx="20" fill="#22252e"/>
  <path d="M160 565c95-20 112-120 205-105s105 70 195 25 130-120 210-80 130 115 255 25" fill="none" stroke="#8f74ff" stroke-width="12" stroke-linecap="round"/>
  <path d="M160 590c100-90 170-20 250-45s140-125 230-70 180 80 385-55" fill="none" stroke="#54d4b5" stroke-width="8" stroke-linecap="round" opacity=".8"/>
</svg>
