<svg xmlns="http://www.w3.org/2000/svg" viewBox="0 0 1200 750" role="img" aria-labelledby="title">
  <title id="title">Ruang Kolaborasi kanban preview</title>
  <rect width="1200" height="750" fill="#e8f6f1"/>
  <rect x="65" y="55" width="1070" height="640" rx="28" fill="#fbfffd"/>
  <rect x="105" y="95" width="220" height="25" rx="12" fill="#183b32"/>
  <circle cx="1040" cy="108" r="24" fill="#54d4b5"/>
  <circle cx="990" cy="108" r="24" fill="#9b87ff"/>
  <rect x="105" y="175" width="300" height="455" rx="22" fill="#eef3f1"/>
  <rect x="450" y="175" width="300" height="455" rx="22" fill="#f3f0ff"/>
  <rect x="795" y="175" width="300" height="455" rx="22" fill="#eef3f1"/>
  <rect x="135" y="210" width="105" height="18" rx="9" fill="#55716a"/>
  <rect x="480" y="210" width="105" height="18" rx="9" fill="#6d4aff"/>
  <rect x="825" y="210" width="105" height="18" rx="9" fill="#55716a"/>
  <g fill="#fff">
    <rect x="130" y="260" width="250" height="120" rx="16"/><rect x="130" y="400" width="250" height="165" rx="16"/>
    <rect x="475" y="260" width="250" height="155" rx="16"/><rect x="475" y="435" width="250" height="105" rx="16"/>
    <rect x="820" y="260" width="250" height="135" rx="16"/><rect x="820" y="415" width="250" height="150" rx="16"/>
  </g>
  <g fill="#cbd8d4"><rect x="155" y="290" width="170" height="12" rx="6"/><rect x="500" y="290" width="160" height="12" rx="6"/><rect x="845" y="290" width="175" height="12" rx="6"/></g>
</svg>
